#!OML:ASF H:\GeneralSubjects\Female5\Project 1\Capture day 1\Session 1\Female5.ASF
:FULLY-SPECIFIED
:DEGREES
960
root -35.5355 16.2129 0.452317 -170.188 5.01388 -182.544
lowerback 6.929 0.202259 2.25751
upperback -10.0274 1.53842 1.1526
thorax -14.9771 0.881079 -0.368238
lowerneck -16.044 0.88164 5.65006
upperneck 29.904 2.76028 -4.34728
head 12.7406 1.97819 -2.06662
rclavicle -7.85199e-015 3.33958e-014
rhumerus -58.3166 11.2623 -75.6463
rradius 35.9873
rwrist -17.4135
rhand -31.0393 -20.4231
rfingers 7.12502
rthumb -4.32107 -50.359
lclavicle -7.85199e-015 3.33958e-014
lhumerus -45.5636 2.35386 69.4167
lradius 32.4311
lwrist -2.76554
lhand -30.583 29.5793
lfingers 7.12502
lthumb -3.88047 59.5238
rfemur -11.921 8.09923 28.4233
rtibia 13.3676
rfoot -15.5853 -6.13323
rtoes -11.1907
lfemur -4.48731 -24.4678 -29.833
ltibia 3.53525
lfoot -24.1617 -6.506
ltoes -19.5505
961
root -35.5934 16.2355 0.442236 -170.174 5.37453 -182.671
lowerback 6.70953 0.236753 2.37439
upperback -10.0479 1.58877 1.06152
thorax -14.8547 0.888888 -0.541081
lowerneck -16.3101 0.907827 5.09785
upperneck 30.4653 2.74908 -3.45638
head 13.0086 2.05159 -1.62536
rclavicle -3.77691e-015 4.29375e-014
rhumerus -58.4513 10.4895 -75.2522
rradius 35.7832
rwrist -16.9951
rhand -30.981 -20.4029
rfingers 7.12502
rthumb -4.26484 -50.34
lclavicle -3.77691e-015 4.29375e-014
lhumerus -45.9631 1.94047 70.2795
lradius 32.5595
lwrist -2.76167
lhand -30.29 29.4735
lfingers 7.12502
lthumb -3.59748 59.4229
rfemur -11.1424 8.85656 28.1766
rtibia 11.7539
rfoot -14.8284 -7.25873
rtoes -10.6538
lfemur -3.18492 -26.4816 -30.5192
ltibia 1.73829
lfoot -26.7069 -4.95109
ltoes -21.4973
962
root -35.6365 16.2576 0.429571 -170.221 5.72264 -182.586
lowerback 6.57882 0.294057 2.6143
upperback -10.0576 1.69758 1.03499
thorax -14.7753 0.9147 -0.723141
lowerneck -16.2923 1.03614 5.12049
upperneck 30.7317 2.97417 -3.39295
head 13.1283 2.18262 -1.5661
rclavicle -1.14301e-014 2.38542e-014
rhumerus -58.2883 10.2657 -75.1438
rradius 35.3684
rwrist -17.678
rhand -31.0805 -20.0992
rfingers 7.12502
rthumb -4.3609 -50.0343
lclavicle -1.14301e-014 2.38542e-014
lhumerus -46.2183 1.47704 71.1776
lradius 32.3972
lwrist -2.88738
lhand -30.0761 29.1406
lfingers 7.12502
lthumb -3.39094 59.0933
rfemur -10.0252 9.42039 28.2528
rtibia 9.72391
rfoot -14.047 -8.32778
rtoes -11.1918
lfemur -1.5813 -29.1939 -31.0707
ltibia -0.175452
lfoot -29.7963 -3.37903
ltoes -22.3782
963
root -35.6692 16.2785 0.419647 -170.148 6.0401 -182.197
lowerback 6.38814 0.342716 2.94357
upperback -10.0909 1.83074 1.12793
thorax -14.6883 0.956182 -0.826461
lowerneck -16.3759 1.03379 5.20145
upperneck 30.9141 3.01497 -3.52476
head 13.2286 2.2021 -1.62383
rclavicle 8.74653e-015 -4.77083e-015
rhumerus -58.2914 9.64669 -74.8945
rradius 35.0849
rwrist -17.508
rhand -31.9239 -20.6294
rfingers 7.12502
rthumb -5.17521 -50.5462
lclavicle 8.74653e-015 -4.77083e-015
lhumerus -46.338 0.846428 72.1711
lradius 32.0143
lwrist -2.99525
lhand -29.7779 28.8936
lfingers 7.12502
lthumb -3.10292 58.8508
rfemur -8.81281 10.7174 28.6904
rtibia 7.53125
rfoot -13.8436 -9.39804
rtoes -8.14298
lfemur -0.0087621 -32.3029 -31.2568
ltibia -2.01628
lfoot -33.1029 -1.65945
ltoes -23.361
964
root -35.6981 16.3 0.409041 -169.949 6.27912 -181.777
lowerback 6.00806 0.402383 2.93149
upperback -10.0976 1.94014 1.33282
thorax -14.4584 1.0372 -0.605753
lowerneck -16.5848 1.12225 5.74579
upperneck 31.0897 3.13659 -3.98823
head 13.3727 2.26185 -1.88022
rclavicle 1.98785e-016 1.19271e-014
rhumerus -57.9272 9.07315 -74.3341
rradius 34.4246
rwrist -16.0597
rhand -32.787 -22.1193
rfingers 7.12502
rthumb -6.00861 -52.0141
lclavicle 1.98785e-016 1.19271e-014
lhumerus -46.2382 0.439296 73.1753
lradius 31.4808
lwrist -3.39024
lhand -29.5002 28.5144
lfingers 7.12502
lthumb -2.8348 58.4753
rfemur -7.57955 12.9215 29.2331
rtibia 5.2182
rfoot -14.0339 -11.466
rtoes -6.92639
lfemur 1.42571 -35.8018 -31.4316
ltibia -3.49317
lfoot -36.6251 0.600159
ltoes -25.013
965
root -35.7217 16.3212 0.395928 -169.66 6.47083 -181.437
lowerback 5.52415 0.387561 3.44163
upperback -10.2091 2.00237 1.3196
thorax -14.2734 1.02905 -0.908583
lowerneck -16.3774 1.12933 5.44085
upperneck 31.1573 3.18691 -3.6796
head 13.3489 2.30321 -1.69651
rclavicle 1.33186e-014 -3.18055e-014
rhumerus -58.3643 9.23273 -74.7628
rradius 34.6284
rwrist -16.5919
rhand -33.5827 -22.8833
rfingers 7.12502
rthumb -6.77677 -52.7548
lclavicle 1.33186e-014 -3.18055e-014
lhumerus -46.2471 0.180901 73.8084
lradius 30.9198
lwrist -3.72647
lhand -29.0191 27.9064
lfingers 7.12502
lthumb -2.37016 57.873
rfemur -6.51341 15.9827 29.7397
rtibia 3.20096
rfoot -14.829 -14.2101
rtoes -5.98836
lfemur 2.52963 -39.3791 -31.6618
ltibia -4.35121
lfoot -40.1671 2.607
ltoes -26.2968
966
root -35.7386 16.3376 0.384522 -169.31 6.58651 -180.975
lowerback 5.00346 0.362686 3.8797
upperback -10.3111 2.04323 1.36072
thorax -14.0592 1.02501 -1.10556
lowerneck -16.1472 1.27555 5.54613
upperneck 31.1396 3.33615 -3.48186
head 13.2996 2.41583 -1.61287
rclavicle 8.15017e-015 -2.3059e-014
rhumerus -58.4036 8.98286 -75.1413
rradius 34.4615
rwrist -16.5835
rhand -33.5608 -23.193
rfingers 7.12502
rthumb -6.75558 -53.0652
lclavicle 8.15017e-015 -2.3059e-014
lhumerus -46.0922 0.284155 73.9485
lradius 30.2788
lwrist -5.73527
lhand -25.6267 26.8795
lfingers 7.12502
lthumb 0.906286 56.8573
rfemur -5.84546 18.4698 30.3083
rtibia 1.79852
rfoot -15.5137 -16.2484
rtoes -4.39286
lfemur 3.12407 -42.1924 -31.5094
ltibia -4.78562
lfoot -42.9009 3.35529
ltoes -26.1889
